<mxfile host="app.diagrams.net" modified="2021-12-27T07:47:56.378Z" agent="5.0 (Macintosh; Intel Mac OS X 10_15_7) AppleWebKit/537.36 (KHTML, like Gecko) Chrome/95.0.4638.69 Safari/537.36" etag="wToEhkyy8mVUspHWrwsP" version="16.1.0" type="github">
  <diagram id="-64D-WELnC1yGxQvu_H8" name="Page-1">
    <mxGraphModel dx="1186" dy="739" grid="1" gridSize="10" guides="1" tooltips="1" connect="1" arrows="1" fold="1" page="1" pageScale="1" pageWidth="827" pageHeight="1169" math="0" shadow="0">
      <root>
        <mxCell id="0" />
        <mxCell id="1" parent="0" />
        <mxCell id="EJW1Pdkh8-pxFQmy5cDu-1" value="トップページ（投稿一覧）" style="whiteSpace=wrap;html=1;align=center;fillColor=#f5f5f5;fontColor=#333333;strokeColor=#666666;" vertex="1" parent="1">
          <mxGeometry x="40" y="40" width="170" height="40" as="geometry" />
        </mxCell>
        <mxCell id="EJW1Pdkh8-pxFQmy5cDu-2" value="新規投稿ページ" style="whiteSpace=wrap;html=1;align=center;fillColor=#f5f5f5;fontColor=#333333;strokeColor=#666666;" vertex="1" parent="1">
          <mxGeometry x="319" y="320" width="201" height="40" as="geometry" />
        </mxCell>
        <mxCell id="EJW1Pdkh8-pxFQmy5cDu-3" value="投稿詳細ページ" style="whiteSpace=wrap;html=1;align=center;fillColor=#f5f5f5;fontColor=#333333;strokeColor=#666666;" vertex="1" parent="1">
          <mxGeometry x="319" y="380" width="201" height="40" as="geometry" />
        </mxCell>
        <mxCell id="EJW1Pdkh8-pxFQmy5cDu-4" value="投稿編集ページ" style="whiteSpace=wrap;html=1;align=center;fillColor=#f5f5f5;fontColor=#333333;strokeColor=#666666;" vertex="1" parent="1">
          <mxGeometry x="600" y="320" width="200" height="40" as="geometry" />
        </mxCell>
        <mxCell id="EJW1Pdkh8-pxFQmy5cDu-5" value="商品購入ページ" style="whiteSpace=wrap;html=1;align=center;fillColor=#f5f5f5;fontColor=#333333;strokeColor=#666666;" vertex="1" parent="1">
          <mxGeometry x="600" y="380" width="200" height="40" as="geometry" />
        </mxCell>
        <mxCell id="EJW1Pdkh8-pxFQmy5cDu-6" value="ユーザー新規登録ページ" style="whiteSpace=wrap;html=1;align=center;fillColor=#f5f5f5;fontColor=#333333;strokeColor=#666666;" vertex="1" parent="1">
          <mxGeometry x="319" y="40" width="200" height="40" as="geometry" />
        </mxCell>
        <mxCell id="EJW1Pdkh8-pxFQmy5cDu-7" value="ユーザーログインページ" style="whiteSpace=wrap;html=1;align=center;fillColor=#f5f5f5;fontColor=#333333;strokeColor=#666666;" vertex="1" parent="1">
          <mxGeometry x="319" y="101" width="200" height="40" as="geometry" />
        </mxCell>
        <mxCell id="EJW1Pdkh8-pxFQmy5cDu-8" value="ユーザーマイページ（店舗）" style="whiteSpace=wrap;html=1;align=center;fillColor=#f5f5f5;fontColor=#333333;strokeColor=#666666;" vertex="1" parent="1">
          <mxGeometry x="319" y="160" width="200" height="40" as="geometry" />
        </mxCell>
        <mxCell id="EJW1Pdkh8-pxFQmy5cDu-10" value="ユーザーマイページ（消費者）" style="whiteSpace=wrap;html=1;align=center;fillColor=#f5f5f5;fontColor=#333333;strokeColor=#666666;" vertex="1" parent="1">
          <mxGeometry x="319" y="220" width="200" height="40" as="geometry" />
        </mxCell>
        <mxCell id="EJW1Pdkh8-pxFQmy5cDu-11" value="編集ページ" style="whiteSpace=wrap;html=1;align=center;fillColor=#f5f5f5;fontColor=#333333;strokeColor=#666666;" vertex="1" parent="1">
          <mxGeometry x="600" y="160" width="200" height="40" as="geometry" />
        </mxCell>
        <mxCell id="EJW1Pdkh8-pxFQmy5cDu-12" value="編集ページ" style="whiteSpace=wrap;html=1;align=center;fillColor=#f5f5f5;fontColor=#333333;strokeColor=#666666;" vertex="1" parent="1">
          <mxGeometry x="600" y="220" width="200" height="40" as="geometry" />
        </mxCell>
        <mxCell id="EJW1Pdkh8-pxFQmy5cDu-14" value="" style="endArrow=classic;html=1;rounded=0;entryX=0;entryY=0.5;entryDx=0;entryDy=0;" edge="1" parent="1" target="EJW1Pdkh8-pxFQmy5cDu-6">
          <mxGeometry width="50" height="50" relative="1" as="geometry">
            <mxPoint x="210" y="60" as="sourcePoint" />
            <mxPoint x="260" y="10" as="targetPoint" />
          </mxGeometry>
        </mxCell>
        <mxCell id="EJW1Pdkh8-pxFQmy5cDu-15" value="" style="endArrow=classic;html=1;rounded=0;entryX=0;entryY=0.5;entryDx=0;entryDy=0;" edge="1" parent="1" target="EJW1Pdkh8-pxFQmy5cDu-7">
          <mxGeometry width="50" height="50" relative="1" as="geometry">
            <mxPoint x="240" y="60" as="sourcePoint" />
            <mxPoint x="309" y="170" as="targetPoint" />
            <Array as="points">
              <mxPoint x="240" y="121" />
            </Array>
          </mxGeometry>
        </mxCell>
        <mxCell id="EJW1Pdkh8-pxFQmy5cDu-16" value="" style="endArrow=classic;html=1;rounded=0;entryX=0;entryY=0.5;entryDx=0;entryDy=0;" edge="1" parent="1">
          <mxGeometry width="50" height="50" relative="1" as="geometry">
            <mxPoint x="240" y="120" as="sourcePoint" />
            <mxPoint x="319" y="181" as="targetPoint" />
            <Array as="points">
              <mxPoint x="240" y="181" />
            </Array>
          </mxGeometry>
        </mxCell>
        <mxCell id="EJW1Pdkh8-pxFQmy5cDu-17" value="" style="endArrow=classic;html=1;rounded=0;entryX=0;entryY=0.5;entryDx=0;entryDy=0;" edge="1" parent="1">
          <mxGeometry width="50" height="50" relative="1" as="geometry">
            <mxPoint x="240" y="180" as="sourcePoint" />
            <mxPoint x="319" y="241" as="targetPoint" />
            <Array as="points">
              <mxPoint x="240" y="241" />
            </Array>
          </mxGeometry>
        </mxCell>
        <mxCell id="EJW1Pdkh8-pxFQmy5cDu-18" value="" style="endArrow=classic;html=1;rounded=0;entryX=0;entryY=0.5;entryDx=0;entryDy=0;" edge="1" parent="1" target="EJW1Pdkh8-pxFQmy5cDu-2">
          <mxGeometry width="50" height="50" relative="1" as="geometry">
            <mxPoint x="240" y="240" as="sourcePoint" />
            <mxPoint x="319" y="301" as="targetPoint" />
            <Array as="points">
              <mxPoint x="240" y="340" />
            </Array>
          </mxGeometry>
        </mxCell>
        <mxCell id="EJW1Pdkh8-pxFQmy5cDu-19" value="" style="endArrow=classic;html=1;rounded=0;entryX=0;entryY=0.5;entryDx=0;entryDy=0;" edge="1" parent="1">
          <mxGeometry width="50" height="50" relative="1" as="geometry">
            <mxPoint x="240" y="340" as="sourcePoint" />
            <mxPoint x="319" y="401" as="targetPoint" />
            <Array as="points">
              <mxPoint x="240" y="401" />
            </Array>
          </mxGeometry>
        </mxCell>
        <mxCell id="EJW1Pdkh8-pxFQmy5cDu-20" value="" style="endArrow=classic;html=1;rounded=0;" edge="1" parent="1">
          <mxGeometry width="50" height="50" relative="1" as="geometry">
            <mxPoint x="519" y="179.5" as="sourcePoint" />
            <mxPoint x="600" y="180" as="targetPoint" />
          </mxGeometry>
        </mxCell>
        <mxCell id="EJW1Pdkh8-pxFQmy5cDu-21" value="" style="endArrow=classic;html=1;rounded=0;" edge="1" parent="1">
          <mxGeometry width="50" height="50" relative="1" as="geometry">
            <mxPoint x="520" y="239.5" as="sourcePoint" />
            <mxPoint x="601" y="240" as="targetPoint" />
          </mxGeometry>
        </mxCell>
        <mxCell id="EJW1Pdkh8-pxFQmy5cDu-22" value="" style="endArrow=classic;html=1;rounded=0;" edge="1" parent="1">
          <mxGeometry width="50" height="50" relative="1" as="geometry">
            <mxPoint x="518" y="340.5" as="sourcePoint" />
            <mxPoint x="599" y="341" as="targetPoint" />
          </mxGeometry>
        </mxCell>
        <mxCell id="EJW1Pdkh8-pxFQmy5cDu-23" value="" style="endArrow=classic;html=1;rounded=0;" edge="1" parent="1">
          <mxGeometry width="50" height="50" relative="1" as="geometry">
            <mxPoint x="519" y="399.5" as="sourcePoint" />
            <mxPoint x="600" y="400" as="targetPoint" />
          </mxGeometry>
        </mxCell>
      </root>
    </mxGraphModel>
  </diagram>
</mxfile>
